<?xml version="1.0" encoding="UTF-8"?>
<svg xmlns="http://www.w3.org/2000/svg" xmlns:xlink="http://www.w3.org/1999/xlink" width="200px" height="97px" viewBox="0 0 188 91" version="1.1">
<g id="surface1">
<path style=" stroke:none;fill-rule:nonzero;fill:rgb(91.764706%,26.274511%,20.784314%);fill-opacity:1;" d="M 44.835938 45.667969 L 75.339844 27.96875 C 82.464844 23.777344 84.941406 14.617188 80.761719 7.476562 C 76.578125 0.335938 67.445312 -2.148438 60.320312 2.042969 L 7.675781 32.472656 Z M 44.835938 45.667969 "/>
<path style=" stroke:none;fill-rule:nonzero;fill:rgb(25.882354%,52.156866%,95.686275%);fill-opacity:1;" d="M 67.753906 91.003906 C 72.863281 91.003906 77.972656 88.363281 80.761719 83.550781 C 84.941406 76.40625 82.464844 67.25 75.339844 63.054688 L 22.695312 32.625 C 15.570312 28.433594 6.433594 30.917969 2.253906 38.0625 C -1.925781 45.203125 0.550781 54.363281 7.675781 58.554688 L 60.320312 88.984375 C 62.644531 90.382812 65.277344 91.003906 67.753906 91.003906 "/>
<path style=" stroke:none;fill-rule:nonzero;fill:rgb(98.431373%,73.725492%,1.568628%);fill-opacity:1;" d="M 120.089844 91.003906 C 122.566406 91.003906 125.199219 90.382812 127.523438 88.984375 L 180.167969 58.554688 L 143.472656 45.046875 L 112.503906 62.902344 C 105.378906 67.09375 102.902344 76.253906 107.082031 83.394531 C 109.871094 88.363281 114.980469 91.003906 120.089844 91.003906 "/>
<path style=" stroke:none;fill-rule:nonzero;fill:rgb(20.392157%,65.882355%,32.549021%);fill-opacity:1;" d="M 172.738281 60.574219 C 177.847656 60.574219 182.957031 57.933594 185.742188 53.121094 C 189.925781 45.976562 187.445312 36.816406 180.324219 32.625 L 127.679688 2.195312 C 120.554688 -1.996094 111.417969 0.488281 107.238281 7.628906 C 103.058594 14.773438 105.535156 23.933594 112.65625 28.125 L 165.304688 58.554688 C 167.628906 59.949219 170.257812 60.574219 172.738281 60.574219 "/>
</g>
</svg>
